<svg width="96" height="96" viewBox="0 0 96 96" fill="none" xmlns="http://www.w3.org/2000/svg">
  <title>Reach</title>
  <defs>
    <linearGradient id="rsplit" x1="0" y1="0" x2="1" y2="0">
      <stop offset="47%" stop-color="#ece7da"></stop>
      <stop offset="47%" stop-color="#e24f1c"></stop>
    </linearGradient>
  </defs>
  <rect width="96" height="96" rx="24" fill="#0a1714"></rect>
  <text x="48" y="70" text-anchor="middle" font-family="Fraunces, Georgia, &#39;Times New Roman&#39;, serif" font-weight="600" font-size="68" fill="url(#rsplit)">R</text>
  <g fill="#ece7da">
    <g transform="translate(30 50) scale(0.34)"><rect x="9" y="34" width="23" height="31" rx="11"></rect><rect x="10.5" y="16" width="5.5" height="32" rx="2.75"></rect><rect x="16.5" y="9" width="5.5" height="39" rx="2.75"></rect><rect x="22.5" y="13" width="5.5" height="35" rx="2.75"></rect><rect x="28" y="20" width="5" height="28" rx="2.5"></rect></g>
    <g transform="translate(52 52) scale(0.32)"><rect x="9" y="34" width="23" height="31" rx="11"></rect><rect x="10.5" y="16" width="5.5" height="32" rx="2.75"></rect><rect x="16.5" y="9" width="5.5" height="39" rx="2.75"></rect><rect x="22.5" y="13" width="5.5" height="35" rx="2.75"></rect><rect x="28" y="20" width="5" height="28" rx="2.5"></rect></g>
    <g transform="translate(41 43) scale(0.42)"><rect x="9" y="34" width="23" height="31" rx="11"></rect><rect x="10.5" y="16" width="5.5" height="32" rx="2.75"></rect><rect x="16.5" y="9" width="5.5" height="39" rx="2.75"></rect><rect x="22.5" y="13" width="5.5" height="35" rx="2.75"></rect><rect x="28" y="20" width="5" height="28" rx="2.5"></rect></g>
  </g>
</svg>