<svg width="40" height="40" viewBox="0 0 40 40" fill="none" xmlns="http://www.w3.org/2000/svg">
  <title>Reach</title>
  <defs>
    <linearGradient id="rsplit2" x1="0" y1="0" x2="1" y2="0">
      <stop offset="47%" stop-color="#ece7da"></stop>
      <stop offset="47%" stop-color="#e24f1c"></stop>
    </linearGradient>
  </defs>
  <rect width="40" height="40" rx="11" fill="#0a1714"></rect>
  <text x="20" y="29.5" text-anchor="middle" font-family="Fraunces, Georgia, &#39;Times New Roman&#39;, serif" font-weight="600" font-size="29" fill="url(#rsplit2)">R</text>
  <g fill="#ece7da">
    <g transform="translate(12.5 20) scale(0.15)"><rect x="9" y="34" width="23" height="31" rx="11"></rect><rect x="10.5" y="16" width="5.5" height="32" rx="2.75"></rect><rect x="16.5" y="9" width="5.5" height="39" rx="2.75"></rect><rect x="22.5" y="13" width="5.5" height="35" rx="2.75"></rect><rect x="28" y="20" width="5" height="28" rx="2.5"></rect></g>
    <g transform="translate(22 21) scale(0.14)"><rect x="9" y="34" width="23" height="31" rx="11"></rect><rect x="10.5" y="16" width="5.5" height="32" rx="2.75"></rect><rect x="16.5" y="9" width="5.5" height="39" rx="2.75"></rect><rect x="22.5" y="13" width="5.5" height="35" rx="2.75"></rect><rect x="28" y="20" width="5" height="28" rx="2.5"></rect></g>
    <g transform="translate(17 17) scale(0.185)"><rect x="9" y="34" width="23" height="31" rx="11"></rect><rect x="10.5" y="16" width="5.5" height="32" rx="2.75"></rect><rect x="16.5" y="9" width="5.5" height="39" rx="2.75"></rect><rect x="22.5" y="13" width="5.5" height="35" rx="2.75"></rect><rect x="28" y="20" width="5" height="28" rx="2.5"></rect></g>
  </g>
</svg>